<svg width="29" height="28" viewBox="0 0 29 28" fill="none" xmlns="http://www.w3.org/2000/svg">
<path d="M27.2364 11.3638L15.7748 11.3633C15.2686 11.3633 14.8584 11.7537 14.8584 12.2353V15.7199C14.8584 16.2015 15.2686 16.5919 15.7747 16.5919H22.2292C21.5224 18.3376 20.2033 19.7994 18.5203 20.7283L21.2724 25.2624C25.6873 22.8325 28.2974 18.5689 28.2974 13.7962C28.2974 13.1166 28.2447 12.6308 28.1395 12.0838C28.0595 11.6682 27.6803 11.3638 27.2364 11.3638Z" fill="#167EE6"/>
<path d="M14.2468 21.8268C11.0881 21.8268 8.33056 20.1844 6.84956 17.7539L2.08545 20.3672C4.50987 24.3661 9.0516 27.059 14.2468 27.059C16.7953 27.059 19.2001 26.4059 21.2717 25.2679V25.2617L18.5195 20.7275C17.2606 21.4224 15.8038 21.8268 14.2468 21.8268Z" fill="#12B347"/>
<path d="M21.2736 25.2679V25.2617L18.5214 20.7275C17.2625 21.4224 15.8058 21.8268 14.2487 21.8268V27.059C16.7972 27.059 19.2021 26.406 21.2736 25.2679Z" fill="#0F993E"/>
<path d="M5.69553 13.6881C5.69553 12.2064 6.12043 10.8201 6.85042 9.6221L2.08631 7.00879C0.883892 8.97408 0.197754 11.2565 0.197754 13.6881C0.197754 16.1198 0.883892 18.4022 2.08631 20.3674L6.85042 17.7541C6.12043 16.5561 5.69553 15.1698 5.69553 13.6881Z" fill="#FFD500"/>
<path d="M14.2468 5.54955C16.3065 5.54955 18.1986 6.2461 19.6764 7.40473C20.041 7.69054 20.5708 7.66991 20.9048 7.35209L23.4991 4.88314C23.878 4.52254 23.851 3.93228 23.4462 3.5981C20.9702 1.55384 17.7486 0.317383 14.2468 0.317383C9.0516 0.317383 4.50987 3.01025 2.08545 7.00914L6.84956 9.62245C8.33056 7.192 11.0881 5.54955 14.2468 5.54955Z" fill="#FF4B26"/>
<path d="M19.6783 7.40473C20.0429 7.69054 20.5728 7.66991 20.9067 7.35209L23.501 4.88314C23.8798 4.52254 23.8528 3.93228 23.4481 3.5981C20.9721 1.55379 17.7505 0.317383 14.2487 0.317383V5.54955C16.3084 5.54955 18.2005 6.2461 19.6783 7.40473Z" fill="#D93F21"/>
</svg>
